# xmcd
#
# Track frame offsets:
# 150
# 6910
# 37089
# 51539
# 75870
# 110076
# 129474
# 145394
# 171916
# 191776
# 208899
# 239391
# 259569
# 271891
#
# Disc length: 3713 seconds
#
#
# Revision: 0
# Processed by: cddbd v1.5.1PL0 Copyright (c) Steve Scherf et al.
# Submitted via: FreeRIP 2.942 
#
DISCID=d00e7f0e
DTITLE=Os Mateadores Ao Vivo 2005 - Os Mateadores Ao Vivo
DYEAR=2005
DGENRE=Gaucha
TTITLE0=Abertura
TTITLE1=Medley Nu tranco de vaneira/Faculdade do campo
TTITLE2=Brega de mais
TTITLE3=Medley(Chamamé)Chuva, tropa e saudade/O potro da estancia querencia
TTITLE4=Medley(Vanera)Doce amada/Morena paixao/Bolicheiro de Vila
TTITLE5=Alo meu amor
TTITLE6=Sob o manto das estrelas
TTITLE7=Medley(Vanera)Sovando nasto/chamamento
TTITLE8=Medley(Vanera)Fica/Perdão
TTITLE9=Minha prenda amada
TTITLE10=Medley(Vanera)Peão e rodeio/Dando folga pros arreiros
TTITLE11=Historia dos passarinhos
TTITLE12=Vida de gaucho
TTITLE13=Encerramento
EXTD=
EXTT0=
EXTT1=
EXTT2=
EXTT3=
EXTT4=
EXTT5=
EXTT6=
EXTT7=
EXTT8=
EXTT9=
EXTT10=
EXTT11=
EXTT12=
EXTT13=
PLAYORDER=
